<?xml version="1.0" standalone="no"?>
<!DOCTYPE svg PUBLIC "-//W3C//DTD SVG 20010904//EN"
 "http://www.w3.org/TR/2001/REC-SVG-20010904/DTD/svg10.dtd">
<svg version="1.0" xmlns="http://www.w3.org/2000/svg"
 width="512.000000pt" height="512.000000pt" viewBox="0 0 512.000000 512.000000"
 preserveAspectRatio="xMidYMid meet">

<g transform="translate(0.000000,512.000000) scale(0.100000,-0.100000)"
fill="#fff" stroke="none">
<path d="M4650 4555 c-31 -7 -373 -145 -760 -305 -1086 -450 -1964 -813 -2774
-1147 -407 -167 -770 -320 -808 -339 -182 -92 -228 -207 -121 -305 29 -27 226
-96 668 -234 273 -85 347 -99 500 -93 97 4 132 10 180 29 49 20 612 390 995
654 369 255 1002 670 1071 704 100 48 168 61 188 37 21 -25 8 -88 -33 -154
-51 -85 -655 -676 -1268 -1241 -207 -190 -238 -234 -238 -326 0 -44 42 -125
86 -166 117 -110 421 -325 999 -707 423 -280 521 -337 650 -378 242 -77 398
-7 459 206 16 56 264 1596 402 2495 152 995 160 1062 130 1153 -38 115 -158
158 -326 117z"/>
</g>
</svg>
