<?xml version="1.0" standalone="no"?>
<!DOCTYPE svg PUBLIC "-//W3C//DTD SVG 20010904//EN"
 "http://www.w3.org/TR/2001/REC-SVG-20010904/DTD/svg10.dtd">
<svg version="1.0" xmlns="http://www.w3.org/2000/svg"
 width="512.000000pt" height="512.000000pt" viewBox="0 0 512.000000 512.000000"
 preserveAspectRatio="xMidYMid meet">

<g transform="translate(0.000000,512.000000) scale(0.100000,-0.100000)"
fill="#fff" stroke="none">
<path d="M85 4036 c-16 -7 -41 -26 -55 -41 -117 -127 179 -886 610 -1563 216
-338 386 -557 576 -742 263 -255 538 -429 839 -529 191 -64 295 -82 500 -88
249 -7 354 16 409 90 20 27 21 43 26 365 5 286 8 343 22 375 21 47 53 60 139
55 164 -9 395 -183 764 -577 108 -116 218 -226 245 -246 89 -65 96 -66 496
-63 353 3 360 3 395 26 84 52 89 139 16 285 -86 170 -275 400 -629 763 -114
116 -213 225 -222 242 -9 17 -16 51 -16 76 0 41 9 59 81 163 468 683 671 1027
719 1219 27 108 16 148 -50 182 -43 22 -51 22 -388 22 -233 0 -357 -4 -383
-12 -62 -18 -113 -69 -150 -150 -183 -399 -385 -743 -580 -988 -84 -107 -224
-242 -278 -270 -87 -44 -148 -20 -170 65 -7 29 -11 241 -11 642 0 566 -1 600
-19 640 -35 75 -18 73 -573 73 -477 0 -494 -1 -526 -20 -40 -25 -66 -81 -58
-126 4 -18 34 -68 67 -111 76 -98 105 -155 130 -251 18 -69 19 -113 19 -571 0
-311 -4 -510 -10 -533 -37 -131 -182 -71 -358 147 -229 284 -448 700 -662
1261 -39 104 -80 160 -133 185 -39 17 -69 19 -397 18 -274 0 -362 -3 -385 -13z"/>
</g>
</svg>
